<?xml version="1.0" encoding="UTF-8"?>
<svg id="Layer_1" xmlns="http://www.w3.org/2000/svg" version="1.1" viewBox="0 0 354.41 361.81">
  <!-- Generator: Adobe Illustrator 29.0.1, SVG Export Plug-In . SVG Version: 2.1.0 Build 192)  -->
  <defs>
    <style>
      .st0 {
        fill: #602234;
      }

      .st1 {
        fill: #f0ecec;
      }
    </style>
  </defs>
  <g>
    <rect class="st1" x=".06" y=".29" width="354.41" height="361.81" rx="18" ry="18"/>
    <path class="st0" d="M96.28,38.7c25.21-1.03,50.68.52,75.76.47,31.73-.07,68.09-2.92,99.43-.66,14.21,1.03,25.8,10.79,27.47,24.57-.23,49.31.22,98.91,0,148.02-.06,12.4.87,26.37,0,38.54-1.03,14.45-9.68,25.38-25.01,27.53H88.04c-15.14-1.24-26.24-10.95-27.47-25.76l.09-189.43c4.97-19.35,16.84-22.51,35.62-23.28ZM142.09,47.11v52.11c0,1.01,3.66,3.32,4.32,0,.14-12.83-.18-25.68-.03-38.51.03-2.83.86-5.66.68-8.89-.1-1.81-.8-6.52-3.41-6.24-.94.1-1.44.8-1.56,1.53ZM122.25,46.9c-3.12-1.18-3.91-1.31-4.24,1.98-1,10.19.18,22.67.03,33.19-.04,2.45-2.23,19.15,1.51,19.13,1.01,0,3.24-2.45,2.78-3.75l-.09-50.55ZM133.92,46.96c-.62-.7-2.59-.76-3.55-.74l-.65,50.65c-.34,2.25,1.83,5.45,3.78,2.98,1.19-1.51.4-7.74.54-10.14.71-12.07,1.63-27.07.67-39.07-.07-.86-.31-3.14-.79-3.68ZM155.06,46.22c-.14,10.75.17,21.53.02,32.29-.08,6.14-1.4,12.7-.65,18.93.54,4.52,4.42,4.52,4.96,0,1.5-12.41-.07-31.04-.69-43.82-.14-3.01,2.04-6.71-3.64-7.4ZM205.34,48.35c-.5-.84-.42-2.14-1.71-2.07-1.1.06-2.55,1.39-2.29,2.57,1.47,15.31-1.84,33.67.02,48.6.3,2.38,1.71,4.98,4.04,2.66.79-15.81,0-31.82.27-47.69.02-1.21.76-2.62.66-3.43-.05-.37-.85-.4-.99-.63ZM251.38,46.22v52.4c0,.63,2.03,2.6,2.79,2.54.95-.56,1.77-1.63,2.02-2.67,1.26-5.32-.44-14.43-.51-19.98-.14-10.27.16-20.55.03-30.81-.25-2.11-2.66-1.42-4.32-1.48ZM262.49,46.81v52.4c0,2.21,4.15,1.83,4.36.02l-.04-50.94c.18-1.86-3.75-2.3-4.32-1.48ZM273.61,47.7v50.92c0,1.74,2.82,2.78,4.02.89l.31-50.63c0-1.71-3.79-2.9-4.32-1.18ZM84.51,48.72c-3.26.58-7.99,4.02-9.6,6.78-8.4,14.36,8.62,29.76,23.55,19.03,14.58-10.48,2.58-28.74-13.95-25.81ZM231.02,71.12c8.01-1.77,11.4-12.48,4.94-17.51-3.5-2.73-6.04-1.7-10.12-2.68-2.97,2.69-7,4.62-7.23,9.21-.16,3.36,3.34,8.45,6.41,9.89.73.35,2.2.39,2.28.47.17.18-.63,1.78-.57,2.59.55,7.84-.46,17.86.54,24.96.53,3.79,3.86,3.55,4.36-.61.74-6.12.27-16.69.02-23.13-.04-1.13-.45-2.11-.64-3.19ZM289.52,99.97c.86-1.43-.45-4.91-.5-6.66-.38-12.44.58-24.9-.61-37.31.34-1.52-3.96-3.05-4.3-2.68-.46,2.34.55,4.59.64,6.78.42,10.9-1.7,27.37,0,37.3.09.51,1.65,3.75,1.83,3.87.31.21,2.78-1.05,2.93-1.31ZM178.99,73.58c-7.72,1.06-10.03,10.63-4.81,16.17,3.19,3.39,6.23,4.88,10.6,2.44,10.28-5.74,5.83-20.2-5.79-18.61ZM214.33,74.05v25.16c0,1.72,4.32,1.72,4.32,0v-23.68c0-.74-3.37-1.85-4.32-1.48ZM104.87,85.4c-2.7.76-2.17,5.85,1.08,5.87,5.54.03,4.18-7.34-1.08-5.87ZM76.03,91.22c1.84-5.04-4.99-7.75-5.55-2.61-.4,3.7,2.76,2.47,5.55,2.61ZM239.03,88.26c-.23,2.12-.25,11.35,1.25,12.44,4.78-1.15,3.17-8.68,2.46-12.44-.68-3.61-3.33-3.43-3.7,0ZM82.2,86.48v12.73c0,.95,4.99,3.61,4.95-1.17,0-1.01-.59-1.98-.62-2.98-.12-4.18,1.83-9.83-4.32-8.58ZM97.64,86.48c-.24-.25-3.23.49-3.71.88-.92.75-.84,8.97-.57,10.62.64,3.96,4.22,3.83,4.84-.61.52-3.73-.94-7.18-.56-10.9ZM105.1,100.64c2.73,1.76,5.38-4.54,3.68-5.6-4.82-2.74-5.34,4.53-3.68,5.6ZM71.82,100.58c3.35,1.83,7.97-7.23-1.35-5.22-.33,1.16.39,4.69,1.35,5.22ZM74.79,115.49v25.16c0,1.29,3.72,7.18,4.98,8.25,6.71,5.75,22.67,5.28,28.64-1.48.67-.76,2.81-4.92,2.81-5.59v-26.35h-7.41v23.39c0,8.82-17.81,8.74-20.91,2.88-1.73-3.26-.36-15.43-.67-20.08-.06-.85-.53-5.32-.71-5.54-.38-.45-6.43-.93-6.72-.66ZM153.52,115.49c-7.4-1-17.04.74-24.7,0-.88.52-.85,1.18-.96,2.04-.74,6.04.62,12.48.67,18.41.04,4.43-1.22,9.3-.58,14.14.52,3.91,4.12,1.21,7.34,2.71v-11.84h12.04c.75,0,8.48,11.25,9.26,11.25h8.95c-2.94-4.01-6.43-7.86-9.87-11.55l5.85-3.26c8.25-7.11,2.35-20.49-8.01-21.89ZM182.23,116.38v35.82h7.41c.02-12.25.18-24.5-.62-36.71-1.5.18-6.31-.63-6.8.89ZM239.03,115.49h-32.11l.62,36.71h29.95c.31,0,1.3.94,2.16.59v-7.69s-25.31,0-25.31,0c-.02-2.79.29-5.61-.62-8.29h20.99v-6.51h-20.99v-7.7h25.31v-7.11ZM261.88,115.49h-7.41v35.82c0,.06.86.89.93.89h28.4c.31,0,1.3.93,2.16.59v-8.29l-24.08.59v-29.61ZM93.32,203.13c2.77-1.36,5.15-2.23,7.06-4.77.35-.47,2.2-3.59,2.2-3.81v-28.13l-6.79.59c-.7,7.77.94,17,.02,24.59-.69,5.66-7.41,5.66-12.01,4.98-3.74-.55-5.69-4.73-6.82-4.73-1.23,0-3.64,3.07-4.6,3.97,2.17,3.89,5.42,5.33,9.4,6.88.96.37,1.99.15,1.67,1.62-.62.02-1.24-.03-1.85,0-.05,1.44.08,3.52.95,4.72.92,1.27,2.43,1.11,3.41,2.06,1.32,1.27.7,3.55,3.97,3.31,2.59-.19.98-3.67,1.84-5.36.78-1.53,6.27-1.56,5.25-5.91-1.48,1.08-3.41-.01-3.7,0ZM128.51,194.84c.62.6,15.27-.45,17.6,0,1.85.72,4.13,7.85,4.73,8.2s5.38.24,6.69.68c-4.36-12.65-11.68-24.44-17.36-36.63-1.83.51-7.81-1.31-8.63-.3-4.04,12.49-13.52,22.98-16,36.04,6.69,1.7,8.1-.81,10.21-6.2.68-1.74-.2-5.24,2.76-5.34.14.72-.19,3.37,0,3.55ZM177.29,203.13v-36.71c-1.92.96-4.09.54-6.18.59-.91,11.97-1.01,24.16,0,36.13h6.18ZM235.33,203.72c.31-.12,1.11.36,1.26-.37l1.21-36.34h-8.64c-.13,0-.3,1.52-.95,2.34-1.28,1.62-3.35,2.9-4.61,4.47-3.1,3.85-5.07,8.37-8.02,12.14-3.57-7.03-9.79-12.68-14.21-19.28-2.34-.04-4.51,1.01-6.79-.26v36.71h6.79v-24.28c1.15-.25,1.2.37,1.75.99,2.23,2.5,10.63,14.2,12.78,14.99l5.83-6.22c2.27-3.42,4.24-6.52,8.03-8.57.87,8.16-.22,16.15.62,24.28.41.03.82-.03,1.23,0,1.78.1,2.11.02,3.7-.59ZM286.57,167.01h-32.11v36.12h32.11l.62-6.51-25.84-.68c-1.15-2.38-.6-5.08-.71-7.61h22.23v-6.51h-20.68c-.19,0-.87.82-1.54.59l-.62-8.88h25.93l.62-6.51ZM74.65,217.48c-1.84-1.74-4.59-.53-4.73,1.9-.05.8.58,1.9.58,2.97,0,9.79-.02,19.29.61,29.01.22,3.34-1.61,10.17,3.36,10.41,1.37.07.78-.08.93-.91.51-2.81-.02-4.64-.01-7.09,0-10.46.95-23.04.05-33.21-.08-.91-.11-2.45-.79-3.09ZM97.55,267.58l.73-47.61c.21-1.13-1.66-3.36-2.74-3.19-2.61.41-1.47,9.21-1.59,11.54-.59,10.95-1.64,23.38-.66,34.34.13,1.47.56,5.2,2.27,5.49.37.06,1.87-.4,1.99-.57ZM106.61,216.74c-.94.18-1.5,5.07-1.58,6.19-.61,8.1.17,17.24.05,25.51-.07,4.92-1.15,10.22-.67,15.4.41,4.4,4.48,6.49,5,2.37,1.41-11.17-.34-26.72-.06-38.54.09-3.72,2.93-9.83-2.74-10.93ZM119.63,216.78c-2.48.42-4.07,8.59,1.46,6.18,3.68-1.61-.15-6.4-1.46-6.18ZM134.07,242.21v-21.02c0-.32.8-.77.39-2.08-.86-2.72-3.84-3.43-4.56.45-.65,3.5-.67,16.37-.18,20.02.35,2.63,2.05,2.02,4.35,2.63ZM142.71,240.43c.34,2.89,1.31,3.14,4.32,2.96.04-1.18-.04-2.38,0-3.56.21-5.4-.04-10.89-.03-16.31,0-1.24.69-2.44.63-3.5-.14-2.3-3.05-4.88-4.46-1.95-.81,1.69-.8,19.49-.46,22.35ZM159.38,266.19v-43.82c0-.27.66-1.32.69-2.36.1-3.78-4.41-4.43-4.96-.57-1.52,10.69.3,25.93-.03,37.29-.08,2.83-2.56,10.3,1.67,10.85.98.13,2.41-.63,2.63-1.4ZM231.62,268.26v-50.03c0-1-2.74-2.55-4.18.13-1.63,3.03.42,6.54-.79,9.91,1.37,11.35-1.74,26.4.07,37.3.16.95.93,2.62,1.82,3.03.41.19,2.98-.22,3.08-.33ZM83.2,217.37c-.96.27-.93,1.24-1.02,2.01-1.28,10.55.26,25.05.05,36.17-.04,2.42-2.27,12.7,2.75,12.72,3.28.01,1.54-4.04,1.51-5.62-.25-14.22.21-28.47.06-42.69.33-1.54-2.02-2.98-3.36-2.6ZM205.63,217.39c-2.49-.51-4.51,1.38-4.31,3.76,1.29,13.68-1.59,29.9.02,43.27.29,2.37,1.55,3.91,4.02,4.43l.26-51.46ZM215.98,217.4c-1.18.36-1.53,2.13-1.66,3.18-1.31,10.79.28,25.4.04,36.75-.06,2.76-1.73,6.72.04,9.39,1.27,1.91,3.92,2.45,4.29-.5,1.51-12.09-.37-28.74-.05-41.5.05-1.9,2.2-8.79-2.65-7.31ZM243.27,268.18c.43-.25.67-2.47.73-3.15.91-12.08-.38-24.78-.58-36.8-.05-2.81,2.75-12.31-3.37-10.92-.83.19-.99,2.51-1.05,3.26-.81,11.18-1.27,33.65.02,44.44.23,1.97,1.83,4.61,4.25,3.17ZM267.43,217.93c-1.57-.58-4.32-.61-4.32,1.48v12.14c.66.17,4.32-.38,4.32-.59v-13.03ZM277.93,217.34h-3.7v13.32c0,.9,2.82,1.04,3.7.89v-14.21ZM284.81,223.77c1.34.34,4.45.08,5.16-1.09,3.51-5.7-9.04-7.2-5.16,1.09ZM256.23,222.59c2.1-3.23-4.87-6.31-4.91-1.4-.03,3.15,4.46,2.1,4.91,1.4ZM171.94,227.6c-4.04,7.89,6.92,18.6,14.93,12.25,9.2-7.3-1.14-23.08-12.36-14.81-.23.17-2.48,2.4-2.56,2.56ZM255.55,225.13c-7.93.85-2.39,8.64,1.14,5.88,1.37-1.07,1.83-6.2-1.14-5.88ZM286.04,232.65c2.91,1.58,6.59-6.44-1.31-5.25-.56.54.56,4.84,1.31,5.25ZM285.01,245.5c-10.35-14.76-33.33-1.85-24.87,14.07,9.39,17.67,35.35.87,24.87-14.07ZM133.45,245.76c-4.79-.13-8.57.27-10.43,5.09-2.16,5.59.95,10.32,6.02,13.05,8.57,4.62,14.26-4.55,12.15-12.24-.09-.33-2.7-5.01-2.93-5.2-.45-.38-1.29,0-1.72-.11.66-2.36-1.77-2.08-3.7-2.36l.62,1.77Z"/>
  </g>
  <path class="st0" d="M290.9,277.55c-.26,1.09.79,2.64.34,3.55-1.15,2.33-4.69-.74-2.81,4.14-4.18-.69-1.55,1.59-2.78,3.56-.51.81-4.45,2.76-4.94,3.55-.7,1.13.03,2.78-.4,3.47-.31.49-3.84.64-4.23,3.99-.22,1.9,2.55,4.82,4.49,4.28.82-.23,1.18-1.38,2.3-1.08.15,2.22-.22,4.57.04,6.77.13,1.11,1.13,2.02,1.2,3.04.08,1.19-1.03,2.71-1.24,4.4-.61.03-1.24-.05-1.85,0,.23-2.9-4.48-.98-4.94-2.68-.63-2.36,5.52-4.6,4.32-5.61-1.91.34-7.41-.59-8.68.26-.99.66-1.26,6.95.66,8.03l-.61,4.73,11.11-1.18c0,.09.64.36.65.81,0,.35-.83.37-.99.61-2.18,3.31-1.88,1.77-4.82,3.4-.99.55-2.82,3.13-4.09,2.28-.21-.14-.17-2.21-1.03-2.41-1.05-.23-6.53,1.34-6.9,1.9-1.04,1.61,1.11,3.42,1.15,4.36.07,1.9-3.27,1.4-4.85,1.86-1.03.3-1.82,1.16-2.91,1.35-2.57.45-18.45.48-20.94.02-3.13-.58-.88-3.93-4.64-4.44-1.53-.21-2.88.53-4.6.3-1.29-.17-2.26-1.26-3.7-1.17-1.75.1-3.03,2.03-4.51,2.28-2.25.38-5.07-2.14-4.49,1.27-1.19.34-1.77-1.32-2.7-1.15-.53.1-1.11,1.3-2.06,1.61-1.08.35-2.37.04-3.72.57-3.52,1.38-.91,4.43-1.4,4.88-.24.22-1.81.06-2.2-.59-.43-.71.51-1.65.07-2.36-.46-.76-3.26-1.79-3.85-2.56-.4-.52-2.72-5.24-3.28-6.33,4.18-1.16,8.66-.37,12.96-.6.15-.14-.46-2.96-.61-2.96h-9.26c-.33-2.43,2.64-10.76.64-12.18-.74-.52-2.05-.08-2.49-.26-.89-.36-1.45-1.43-2.29-1.66-5.12-1.4-9.17.29-12.53,4.02-.94-.63-4.82-2.29-5.92-2.33-7.06-.27-10.52,12.68-1.94,15.5,5.17,1.7,10.33-3.11,10.95-7.84.2.79.87.96.61,2.6-.15.92-1.56,5.82-1.92,6.51-1.81,3.39-8.74,3.51-11.63,1.83-1.01-.59-1.13-1.83-1.91-2.31-1.24-.78-4.55-.92-5.88-2.06-1.98-1.71-.23-8.07-4.59-7.74-.18-1.14-.76-1.46-1.23-2.36l5.51-.65c.89-6.66-7.25-1.91-11.06-3.5v3.56c.91.15,4.71-.22,4.94,0,.39.38-.3,9.11,0,10.66-3.08.75-7.43,1.52-10.5.59-.3-.09-4.8-3.58-4.94-3.85-.51-1.01,2.23-1.4,3.1-2.35,3.02-3.29.07-7.56-4.02-8.02-.94-.11-6.83-.19-7.12.01-.08.06.02.92,0,1.18l-1.84-1.78c-.52,3.09-5.59,8.49,1.23,7.1.03,2.91-.48,6.21.62,8.88-3.4,1-2.4-.45-4.32-2.06-.66-.55-1.93-.66-2.48-1.21-.47-.47-.88-3.7-2.51-1.7-1.2,1.48-.75,3.38-3.72,4.69-1.32.58-1.69-.33-1.79-.31,11.48-6.77-.9-21.08-9.87-12.13-5.04,5.02-1.65,9.82,3.7,12.73-1.25.1-3.24-.07-3.88.08-.96.22-2.04,2.11-3.36,2.75-2.77,1.35-9.75,1.77-12.8,1.29-2.73-.43-4.35-2.8-5.71-3.41-.59-.26-1.82.02-2.01-.14-.31-.27.17-5.41-.03-6.49-3.91.56-11.54,8.68-11.11.59-1.47-.1-3.47,1.56-4.32-.59,2.05-.06,4.13.05,6.18,0v-4.15s-12.97,0-12.97,0c-.01-.07-.93-.25-.61-1.18,2.8.86,5.73.58,8.64.59.34-2.19-3.77-1.49-4.64-2.94-.56-.93-.08-2.23-.4-3.17-.37-1.11-2.46-1.08-2.4-2.46-.02-2.1,3.54-2.52,4.06-3.26.49-.7.27-2.31.76-3.41.63-1.43,3.53-3.5,4.17-4.92s-.53-3.62.3-5.3c2.53.65,5.08,1,7.69,1.21,55.32-1.14,110.85,1.42,166.15,0,18.46-.47,30.05.16,42.26-14.83ZM220.51,323.73v-9.77c0-1.09-1.56-3.34-3.09-2.66v15.39l9.88.59v-4.14s-6.79.59-6.79.59ZM250.32,326.51c.76.59,1.65.7,2.59.77,11.22.9,12.15-14.08,1.56-15.76-5.09-.81-11.14,5.64-8.29,10.38.17.27,3.89,4.42,4.13,4.61ZM92.08,322.54c.43-.42,6.77,1.4,8.8-3.12,2.53-5.62-7.44-8.74-11.88-6.94l-1.08,13.93c.23,1.25,3.08.84,4.17.87.16-.88-.23-4.53,0-4.74ZM237.17,327.87c1.28-.81.97-13.78-1.84-11.84-.7.49-2.49,14.58,1.84,11.84Z"/>
</svg>